<svg width="175" height="263" viewBox="0 0 175 263" fill="none" xmlns="http://www.w3.org/2000/svg">
<rect width="175" height="262.5" fill="#D9D9D9"/>
<path fill-rule="evenodd" clip-rule="evenodd" d="M64.7973 158.145C81.7672 155.666 93.4515 155.879 110.444 158.232C111.674 158.41 112.799 159.028 113.609 159.971C114.42 160.914 114.862 162.118 114.854 163.361C114.854 164.551 114.445 165.707 113.706 166.609C112.419 168.182 111.099 169.73 109.75 171.25H116.297C116.709 170.759 117.123 170.258 117.542 169.75C119.012 167.947 119.814 165.691 119.812 163.364C119.812 158.343 116.148 154.017 111.123 153.323C93.7292 150.916 81.5713 150.685 64.0808 153.241C59.0035 153.983 55.3542 158.376 55.3542 163.431C55.3542 165.674 56.0855 167.893 57.4714 169.691C57.8804 170.221 58.2845 170.742 58.6862 171.252H65.075C63.8191 169.749 62.5941 168.22 61.4008 166.666C60.6917 165.736 60.3092 164.598 60.3125 163.428C60.3125 160.758 62.2314 158.519 64.7973 158.145ZM87.5833 134.063C89.5367 134.063 91.471 133.678 93.2757 132.93C95.0805 132.183 96.7203 131.087 98.1015 129.706C99.4828 128.324 100.578 126.685 101.326 124.88C102.074 123.075 102.458 121.141 102.458 119.188C102.458 117.234 102.074 115.3 101.326 113.495C100.578 111.69 99.4828 110.051 98.1015 108.669C96.7203 107.288 95.0805 106.192 93.2757 105.445C91.471 104.697 89.5367 104.313 87.5833 104.313C83.6382 104.313 79.8547 105.88 77.0651 108.669C74.2755 111.459 72.7083 115.242 72.7083 119.188C72.7083 123.133 74.2755 126.916 77.0651 129.706C79.8547 132.495 83.6382 134.063 87.5833 134.063V134.063ZM87.5833 139.021C92.8434 139.021 97.8881 136.931 101.608 133.212C105.327 129.492 107.417 124.448 107.417 119.188C107.417 113.927 105.327 108.883 101.608 105.163C97.8881 101.444 92.8434 99.3542 87.5833 99.3542C82.3232 99.3542 77.2785 101.444 73.559 105.163C69.8396 108.883 67.75 113.927 67.75 119.188C67.75 124.448 69.8396 129.492 73.559 133.212C77.2785 136.931 82.3232 139.021 87.5833 139.021V139.021Z" fill="#545454"/>
<path fill-rule="evenodd" clip-rule="evenodd" d="M87.5833 176.208C112.229 176.208 132.208 156.229 132.208 131.583C132.208 106.938 112.229 86.9583 87.5833 86.9583C62.9379 86.9583 42.9583 106.938 42.9583 131.583C42.9583 156.229 62.9379 176.208 87.5833 176.208ZM87.5833 181.167C114.968 181.167 137.167 158.968 137.167 131.583C137.167 104.198 114.968 82 87.5833 82C60.1985 82 38 104.198 38 131.583C38 158.968 60.1985 181.167 87.5833 181.167Z" fill="#545454"/>
</svg>
